<?xml version="1.0" encoding="utf-8"?>
<!-- Generator: Adobe Illustrator 16.0.4, SVG Export Plug-In . SVG Version: 6.00 Build 0)  -->
<!DOCTYPE svg PUBLIC "-//W3C//DTD SVG 1.1//EN" "http://www.w3.org/Graphics/SVG/1.1/DTD/svg11.dtd">
<svg version="1.1" id="Layer_1" xmlns="http://www.w3.org/2000/svg" xmlns:xlink="http://www.w3.org/1999/xlink" x="0px" y="0px"
	 width="295.14px" height="189.445px" viewBox="0 0 295.14 189.445" enable-background="new 0 0 295.14 189.445"
	 xml:space="preserve">
<g opacity="0.8">
	<path fill="none" stroke="#00ADDC" stroke-width="18" stroke-linecap="round" stroke-miterlimit="10" d="M90.091,148.674
		c-32.104,0-58.13-26.025-58.13-58.13c0-32.104,26.025-58.129,58.13-58.129"/>
	<path fill="none" stroke="#00ADDC" stroke-width="18" stroke-linecap="round" stroke-miterlimit="10" d="M140.901,97.864
		c0,28.062-22.749,50.81-50.81,50.81"/>
	
		<line fill="none" stroke="#00ADDC" stroke-width="18" stroke-linecap="round" stroke-miterlimit="10" x1="163.808" y1="90.544" x2="115.496" y2="90.544"/>
</g>
<g>
	
		<line fill="none" stroke="#B72467" stroke-width="18" stroke-linejoin="round" stroke-miterlimit="10" x1="139.642" y1="40.668" x2="103.309" y2="77"/>
	<line fill="none" stroke="#B72467" stroke-width="18" stroke-miterlimit="10" x1="139.642" y1="40.668" x2="174.142" y2="75.168"/>
	
		<line fill="none" stroke="#B72467" stroke-width="18" stroke-linecap="round" stroke-linejoin="round" stroke-miterlimit="10" x1="124.663" y1="55.647" x2="81.954" y2="98.354"/>
	
		<line fill="none" stroke="#B72467" stroke-width="18" stroke-linecap="round" stroke-miterlimit="10" x1="163.809" y1="64.765" x2="197.927" y2="98.883"/>
	
		<line fill="none" stroke="#B72467" stroke-width="18" stroke-linecap="round" stroke-linejoin="round" stroke-miterlimit="10" x1="164.057" y1="90.544" x2="115.745" y2="90.544"/>
</g>
<path fill="none" stroke="#CBDB2A" stroke-width="18" stroke-linecap="round" stroke-miterlimit="10" d="M89.091,164.182
	c-41.221,0-74.638-33.416-74.638-74.638c0-41.221,33.417-74.637,74.638-74.637"/>
<g opacity="0.8">
	
		<line fill="none" stroke="#F68B1F" stroke-width="18" stroke-linecap="round" stroke-miterlimit="10" x1="164.057" y1="90.544" x2="115.745" y2="90.544"/>
	
		<line fill="none" stroke="#F68B1F" stroke-width="18" stroke-linecap="round" stroke-miterlimit="10" x1="141.13" y1="94.197" x2="141.13" y2="164.182"/>
</g>
<line fill="none" stroke="#B72467" stroke-width="18" stroke-linecap="round" stroke-linejoin="round" stroke-miterlimit="10" x1="139.642" y1="40.668" x2="139.289" y2="41.02"/>
<text transform="matrix(1 0 0 1 174.1418 160.1812)" font-family="'MyriadPro-Regular'" font-size="56.1478">Core</text>
<text transform="matrix(1 0 0 1 174.1418 160.1812)" fill="none" stroke="#000000" stroke-width="3" stroke-miterlimit="10" font-family="'MyriadPro-Regular'" font-size="56.1478">Core</text>
</svg>
